<?xml version="1.0" encoding="utf-8"?>
<svg xmlns="http://www.w3.org/2000/svg" xmlns:xlink="http://www.w3.org/1999/xlink" width="500" height="500" viewBox="0 0 500 500">
<defs>
  <clipPath id="clip00">
    <rect x="25" y="25" width="451" height="326"/>
  </clipPath>
</defs>
<polyline clip-path="url(#clip00)" style="stroke:#00ff00; stroke-opacity:0.4; fill:none" points="
  25.15,345.423 28.1691,345.423 31.1882,345.423 34.2073,345.423 37.2265,345.422 40.2456,345.422 43.2647,345.42 46.2838,345.416 49.303,345.404 52.3221,345.379 
  55.3412,345.331 58.3604,345.246 61.3795,345.107 64.3986,344.892 67.4177,344.577 70.4369,344.136 73.456,343.542 76.4751,342.769 79.4943,341.794 82.5134,340.596 
  85.5325,339.161 88.5516,337.48 91.5708,335.552 94.5899,333.381 97.609,330.982 100.628,328.374 103.647,325.582 106.666,322.639 109.686,319.58 112.705,316.446 
  115.724,313.278 118.743,310.118 121.762,307.009 124.781,303.992 127.8,301.106 130.819,298.387 133.839,295.867 136.858,293.573 139.877,291.529 142.896,289.752 
  145.915,288.256 148.934,287.049 151.953,286.135 154.972,285.513 157.992,285.179 161.011,285.124 164.03,285.337 167.049,285.803 170.068,286.506 173.087,287.427 
  176.106,288.548 179.125,289.848 182.145,291.306 185.164,292.9 188.183,294.611 191.202,296.418 194.221,298.3 197.24,300.241 200.259,302.221 203.278,304.225 
  206.298,306.237 209.317,308.244 212.336,310.233 215.355,312.194 218.374,314.117 221.393,315.993 224.412,317.816 227.432,319.579 230.451,321.278 233.47,322.91 
  236.489,324.47 239.508,325.959 242.527,327.373 245.546,328.714 248.565,329.982 251.585,331.177 254.604,332.3 257.623,333.354 260.642,334.339 263.661,335.26 
  266.68,336.117 269.699,336.914 272.718,337.653 275.738,338.338 278.757,338.971 281.776,339.555 284.795,340.092 287.814,340.586 290.833,341.04 293.852,341.456 
  296.871,341.836 299.891,342.183 302.91,342.5 305.929,342.789 308.948,343.052 311.967,343.29 314.986,343.507 318.005,343.703 321.024,343.881 324.044,344.041 
  327.063,344.186 330.082,344.317 333.101,344.435 336.12,344.541 339.139,344.636 342.158,344.722 345.178,344.799 348.197,344.867 351.216,344.929 354.235,344.984 
  357.254,345.033 360.273,345.077 363.292,345.117 366.311,345.151 369.331,345.183 372.35,345.21 375.369,345.235 378.388,345.257 381.407,345.276 384.426,345.294 
  387.445,345.309 390.464,345.322 393.484,345.334 396.503,345.345 399.522,345.354 402.541,345.363 405.56,345.37 408.579,345.376 411.598,345.382 414.617,345.387 
  417.637,345.391 420.656,345.395 423.675,345.399 426.694,345.402 429.713,345.404 432.732,345.407 435.751,345.409 438.77,345.41 441.79,345.412 444.809,345.413 
  447.828,345.414 450.847,345.415 453.866,345.416 456.885,345.417 459.904,345.418 462.923,345.418 465.943,345.419 468.962,345.419 471.981,345.42 475,345.42 
  
  "/>
<polyline clip-path="url(#clip00)" style="stroke:#00ff00; stroke-opacity:0.4; fill:none" points="
  25.15,345.423 28.1691,345.423 31.1882,345.421 34.2073,345.406 37.2265,345.345 40.2456,345.181 43.2647,344.832 46.2838,344.205 49.303,343.205 52.3221,341.746 
  55.3412,339.767 58.3604,337.23 61.3795,334.133 64.3986,330.501 67.4177,326.391 70.4369,321.882 73.456,317.073 76.4751,312.073 79.4943,307 82.5134,301.969 
  85.5325,297.089 88.5516,292.464 91.5708,288.18 94.5899,284.313 97.609,280.922 100.628,278.048 103.647,275.719 106.666,273.947 109.686,272.732 112.705,272.06 
  115.724,271.908 118.743,272.245 121.762,273.035 124.781,274.235 127.8,275.799 130.819,277.682 133.839,279.837 136.858,282.216 139.877,284.775 142.896,287.472 
  145.915,290.267 148.934,293.124 151.953,296.01 154.972,298.895 157.992,301.753 161.011,304.563 164.03,307.305 167.049,309.964 170.068,312.527 173.087,314.984 
  176.106,317.327 179.125,319.553 182.145,321.657 185.164,323.638 188.183,325.497 191.202,327.235 194.221,328.854 197.24,330.358 200.259,331.75 203.278,333.036 
  206.298,334.22 209.317,335.308 212.336,336.305 215.355,337.217 218.374,338.049 221.393,338.806 224.412,339.493 227.432,340.117 230.451,340.681 233.47,341.191 
  236.489,341.651 239.508,342.065 242.527,342.437 245.546,342.77 248.565,343.07 251.585,343.337 254.604,343.577 257.623,343.79 260.642,343.98 263.661,344.15 
  266.68,344.3 269.699,344.434 272.718,344.552 275.738,344.657 278.757,344.75 281.776,344.833 284.795,344.905 287.814,344.969 290.833,345.025 293.852,345.075 
  296.871,345.119 299.891,345.157 302.91,345.191 305.929,345.22 308.948,345.246 311.967,345.269 314.986,345.289 318.005,345.306 321.024,345.321 324.044,345.335 
  327.063,345.346 330.082,345.356 333.101,345.365 336.12,345.373 339.139,345.379 342.158,345.385 345.178,345.39 348.197,345.395 351.216,345.398 354.235,345.402 
  357.254,345.404 360.273,345.407 363.292,345.409 366.311,345.411 369.331,345.413 372.35,345.414 375.369,345.415 378.388,345.416 381.407,345.417 384.426,345.418 
  387.445,345.418 390.464,345.419 393.484,345.42 396.503,345.42 399.522,345.42 402.541,345.421 405.56,345.421 408.579,345.421 411.598,345.421 414.617,345.422 
  417.637,345.422 420.656,345.422 423.675,345.422 426.694,345.422 429.713,345.422 432.732,345.422 435.751,345.422 438.77,345.422 441.79,345.422 444.809,345.422 
  447.828,345.422 450.847,345.422 453.866,345.422 456.885,345.422 459.904,345.422 462.923,345.422 465.943,345.422 468.962,345.422 471.981,345.422 475,345.422 
  
  "/>
<polyline clip-path="url(#clip00)" style="stroke:#00ff00; stroke-opacity:0.4; fill:none" points="
  25.15,345.423 28.1691,344.913 31.1882,342.092 34.2073,336.233 37.2265,327.611 40.2456,316.979 43.2647,305.236 46.2838,293.245 49.303,281.741 52.3221,271.286 
  55.3412,262.273 58.3604,254.933 61.3795,249.367 64.3986,245.569 67.4177,243.451 70.4369,242.875 73.456,243.664 76.4751,245.626 79.4943,248.563 82.5134,252.281 
  85.5325,256.598 88.5516,261.349 91.5708,266.386 94.5899,271.581 97.609,276.825 100.628,282.028 103.647,287.117 106.666,292.035 109.686,296.739 112.705,301.198 
  115.724,305.392 118.743,309.309 121.762,312.945 124.781,316.299 127.8,319.379 130.819,322.194 133.839,324.755 136.858,327.077 139.877,329.173 142.896,331.06 
  145.915,332.752 148.934,334.266 151.953,335.617 154.972,336.819 157.992,337.886 161.011,338.83 164.03,339.665 167.049,340.401 170.068,341.049 173.087,341.619 
  176.106,342.118 179.125,342.555 182.145,342.938 185.164,343.271 188.183,343.562 191.202,343.815 194.221,344.035 197.24,344.227 200.259,344.392 203.278,344.536 
  206.298,344.66 209.317,344.767 212.336,344.86 215.355,344.94 218.374,345.009 221.393,345.068 224.412,345.119 227.432,345.163 230.451,345.201 233.47,345.233 
  236.489,345.261 239.508,345.285 242.527,345.305 245.546,345.322 248.565,345.337 251.585,345.35 254.604,345.361 257.623,345.37 260.642,345.378 263.661,345.385 
  266.68,345.39 269.699,345.395 272.718,345.399 275.738,345.403 278.757,345.406 281.776,345.408 284.795,345.411 287.814,345.412 290.833,345.414 293.852,345.415 
  296.871,345.416 299.891,345.417 302.91,345.418 305.929,345.419 308.948,345.419 311.967,345.42 314.986,345.42 318.005,345.421 321.024,345.421 324.044,345.421 
  327.063,345.421 330.082,345.422 333.101,345.422 336.12,345.422 339.139,345.422 342.158,345.422 345.178,345.422 348.197,345.422 351.216,345.422 354.235,345.422 
  357.254,345.422 360.273,345.422 363.292,345.422 366.311,345.422 369.331,345.422 372.35,345.422 375.369,345.422 378.388,345.422 381.407,345.422 384.426,345.422 
  387.445,345.423 390.464,345.423 393.484,345.423 396.503,345.423 399.522,345.423 402.541,345.423 405.56,345.423 408.579,345.423 411.598,345.423 414.617,345.423 
  417.637,345.423 420.656,345.423 423.675,345.423 426.694,345.423 429.713,345.423 432.732,345.423 435.751,345.423 438.77,345.423 441.79,345.423 444.809,345.423 
  447.828,345.423 450.847,345.423 453.866,345.423 456.885,345.423 459.904,345.423 462.923,345.423 465.943,345.423 468.962,345.423 471.981,345.423 475,345.423 
  
  "/>
</svg>
